<?xml version="1.0" encoding="UTF-8"?>
<svg xmlns="http://www.w3.org/2000/svg" width="58" height="58" viewBox="0 0 58 58" shape-rendering="crispEdges">
  <rect x="0" y="0" width="58" height="58" fill="#c8d68a"/>
  <g transform="translate(2,2)"><rect x="0" y="0" width="6" height="6" fill="#c8d68a"/><rect x="6" y="0" width="6" height="6" fill="#c8d68a"/><rect x="12" y="0" width="6" height="6" fill="#c8d68a"/><rect x="18" y="0" width="6" height="6" fill="#c8d68a"/><rect x="24" y="0" width="6" height="6" fill="#c8d68a"/><rect x="30" y="0" width="6" height="6" fill="#c8d68a"/><rect x="36" y="0" width="6" height="6" fill="#c8d68a"/><rect x="42" y="0" width="6" height="6" fill="#c8d68a"/><rect x="48" y="0" width="6" height="6" fill="#c8d68a"/><rect x="0" y="6" width="6" height="6" fill="#c8d68a"/><rect x="6" y="6" width="6" height="6" fill="#cad78c"/><rect x="12" y="6" width="6" height="6" fill="#ccd78d"/><rect x="18" y="6" width="6" height="6" fill="#ced88f"/><rect x="24" y="6" width="6" height="6" fill="#ced88f"/><rect x="30" y="6" width="6" height="6" fill="#ced88f"/><rect x="36" y="6" width="6" height="6" fill="#ccd78d"/><rect x="42" y="6" width="6" height="6" fill="#cad78c"/><rect x="48" y="6" width="6" height="6" fill="#c8d68a"/><rect x="0" y="12" width="6" height="6" fill="#c8d68a"/><rect x="6" y="12" width="6" height="6" fill="#ccd78d"/><rect x="12" y="12" width="6" height="6" fill="#ebe3aa"/><rect x="18" y="12" width="6" height="6" fill="#efe4ae"/><rect x="24" y="12" width="6" height="6" fill="#efe4ae"/><rect x="30" y="12" width="6" height="6" fill="#efe4ae"/><rect x="36" y="12" width="6" height="6" fill="#ebe3aa"/><rect x="42" y="12" width="6" height="6" fill="#ccd78d"/><rect x="48" y="12" width="6" height="6" fill="#c8d68a"/><rect x="0" y="18" width="6" height="6" fill="#c8d68a"/><rect x="6" y="18" width="6" height="6" fill="#ced88f"/><rect x="12" y="18" width="6" height="6" fill="#efe4ae"/><rect x="18" y="18" width="6" height="6" fill="#f5e6b3"/><rect x="24" y="18" width="6" height="6" fill="#f5e6b3"/><rect x="30" y="18" width="6" height="6" fill="#f5e6b3"/><rect x="36" y="18" width="6" height="6" fill="#efe4ae"/><rect x="42" y="18" width="6" height="6" fill="#ced88f"/><rect x="48" y="18" width="6" height="6" fill="#c8d68a"/><rect x="0" y="24" width="6" height="6" fill="#c8d68a"/><rect x="6" y="24" width="6" height="6" fill="#ced88f"/><rect x="12" y="24" width="6" height="6" fill="#efe4ae"/><rect x="18" y="24" width="6" height="6" fill="#f5e6b3"/><rect x="24" y="24" width="6" height="6" fill="#f5e6b3"/><rect x="30" y="24" width="6" height="6" fill="#f5e6b3"/><rect x="36" y="24" width="6" height="6" fill="#efe4ae"/><rect x="42" y="24" width="6" height="6" fill="#ced88f"/><rect x="48" y="24" width="6" height="6" fill="#c8d68a"/><rect x="0" y="30" width="6" height="6" fill="#c8d68a"/><rect x="6" y="30" width="6" height="6" fill="#ced88f"/><rect x="12" y="30" width="6" height="6" fill="#efe4ae"/><rect x="18" y="30" width="6" height="6" fill="#f5e6b3"/><rect x="24" y="30" width="6" height="6" fill="#f5e6b3"/><rect x="30" y="30" width="6" height="6" fill="#f5e6b3"/><rect x="36" y="30" width="6" height="6" fill="#efe4ae"/><rect x="42" y="30" width="6" height="6" fill="#ced88f"/><rect x="48" y="30" width="6" height="6" fill="#c8d68a"/><rect x="0" y="36" width="6" height="6" fill="#c8d68a"/><rect x="6" y="36" width="6" height="6" fill="#ccd78d"/><rect x="12" y="36" width="6" height="6" fill="#ebe3aa"/><rect x="18" y="36" width="6" height="6" fill="#efe4ae"/><rect x="24" y="36" width="6" height="6" fill="#efe4ae"/><rect x="30" y="36" width="6" height="6" fill="#efe4ae"/><rect x="36" y="36" width="6" height="6" fill="#ebe3aa"/><rect x="42" y="36" width="6" height="6" fill="#ccd78d"/><rect x="48" y="36" width="6" height="6" fill="#c8d68a"/><rect x="0" y="42" width="6" height="6" fill="#c8d68a"/><rect x="6" y="42" width="6" height="6" fill="#cad78c"/><rect x="12" y="42" width="6" height="6" fill="#ccd78d"/><rect x="18" y="42" width="6" height="6" fill="#ced88f"/><rect x="24" y="42" width="6" height="6" fill="#ced88f"/><rect x="30" y="42" width="6" height="6" fill="#ced88f"/><rect x="36" y="42" width="6" height="6" fill="#ccd78d"/><rect x="42" y="42" width="6" height="6" fill="#cad78c"/><rect x="48" y="42" width="6" height="6" fill="#c8d68a"/><rect x="0" y="48" width="6" height="6" fill="#c8d68a"/><rect x="6" y="48" width="6" height="6" fill="#c8d68a"/><rect x="12" y="48" width="6" height="6" fill="#c8d68a"/><rect x="18" y="48" width="6" height="6" fill="#c8d68a"/><rect x="24" y="48" width="6" height="6" fill="#c8d68a"/><rect x="30" y="48" width="6" height="6" fill="#c8d68a"/><rect x="36" y="48" width="6" height="6" fill="#c8d68a"/><rect x="42" y="48" width="6" height="6" fill="#c8d68a"/><rect x="48" y="48" width="6" height="6" fill="#c8d68a"/></g>
  <rect x="0.5" y="0.5" width="57" height="57" fill="none" stroke="#111" stroke-width="1"/>
</svg>
